<svg id="Layer_1" data-name="Layer 1" xmlns="http://www.w3.org/2000/svg" viewBox="0 0 128 128"><defs><style>.cls-1{font-size:22.96px;font-family:BaskOldFace, Baskerville Old Face;}</style></defs><text class="cls-1" transform="translate(15.24 72.49) rotate(-80.46)">G</text><text class="cls-1" transform="matrix(0.4, -0.92, 0.92, 0.4, 18.39, 56.47)">r</text><text class="cls-1" transform="matrix(0.56, -0.83, 0.83, 0.56, 21.18, 49.67)">e</text><text class="cls-1" transform="translate(26.47 41.63) rotate(-44.87)">e</text><text class="cls-1" transform="translate(33.16 34.74) rotate(-32.58)">n</text><text class="cls-1" transform="translate(42.79 28.83) rotate(-22.77)"> </text><text class="cls-1" transform="translate(47.67 26.76) rotate(-16.39)">-</text><text class="cls-1" transform="translate(52.81 25.22) rotate(-9.97)"> </text><text class="cls-1" transform="matrix(1, -0.02, 0.02, 1, 57.83, 24.1)">S</text><text class="cls-1" transform="translate(68.76 23.35) rotate(16.39)">m</text><text class="cls-1" transform="translate(85.28 28.68) rotate(32.04)">a</text><text class="cls-1" transform="translate(93.03 33.57) rotate(41.84)">r</text><text class="cls-1" transform="translate(98.59 38.58) rotate(49.5)">t</text><text class="cls-1" transform="matrix(0.56, 0.83, -0.83, 0.56, 102.2, 42.78)"> </text><text class="cls-1" transform="matrix(0.46, 0.89, -0.89, 0.46, 105.19, 47.18)">-</text><text class="cls-1" transform="translate(107.7 51.9) rotate(68.7)"> </text><text class="cls-1" transform="translate(109.97 56.47) rotate(79.69)">L</text><text class="cls-1" transform="translate(112.28 69.37) rotate(93.81)">u</text><text class="cls-1" transform="matrix(-0.28, 0.96, -0.96, -0.28, 111.56, 80.33)">x</text><text class="cls-1" transform="matrix(-0.47, 0.88, -0.88, -0.47, 109.1, 89.48)">u</text><text class="cls-1" transform="translate(103.78 99.16) rotate(129.1)">r</text><text class="cls-1" transform="translate(99.22 104.96) rotate(138.78)">y</text></svg>